<svg id="Livello_1" data-name="Livello 1" xmlns="http://www.w3.org/2000/svg" viewBox="0 0 103.31 101"><defs><style>.cls-1{fill:#78989f;}.cls-2{fill:#024d5e;}</style></defs><path class="cls-1" d="M6.1,39.58a2.29,2.29,0,0,1,1.13-3l6.25-2.85A2.28,2.28,0,0,1,15,33.56a2.23,2.23,0,0,1,1.25.8l4.76,6,48.34-22a2.21,2.21,0,0,1,1-.21,2.32,2.32,0,0,1,1,.26,2.29,2.29,0,0,1,.78.67,2.2,2.2,0,0,1,.41.94l5.12,27.83a2.27,2.27,0,0,1-.22,1.47,2.34,2.34,0,0,1-1.08,1l-37.47,17a2.29,2.29,0,0,1-2.74-.66L13.75,38.61l-4.62,2.1a2.31,2.31,0,0,1-1.75.06A2.27,2.27,0,0,1,6.1,39.58ZM23.91,44,38.59,62.49,72.81,46.91,68.54,23.72Zm22.9,29.78a4.58,4.58,0,1,0,3.5-.12A4.59,4.59,0,0,0,46.81,73.82Zm-6.43,8a9.15,9.15,0,1,1,5.12,4.78A9.11,9.11,0,0,1,40.38,81.77ZM76,60.56a4.58,4.58,0,0,0-2.27,6.06,4.57,4.57,0,0,0,8.44-.29A4.57,4.57,0,0,0,76,60.56Zm-6.44,8a9.15,9.15,0,1,1,5.12,4.78A9.18,9.18,0,0,1,69.52,68.51Z"/><path class="cls-2" d="M63.81,36.69A16.52,16.52,0,1,1,59,25,16.52,16.52,0,0,1,63.81,36.69Zm-8.2-6.26a1.67,1.67,0,0,0-.52-.34,1.77,1.77,0,0,0-.6-.11,1.6,1.6,0,0,0-.61.14,1.49,1.49,0,0,0-.5.36l-7.17,9.14L41.88,35.3a1.5,1.5,0,0,0-1.08-.42,1.58,1.58,0,0,0-1.07.45,1.55,1.55,0,0,0-.45,1.07,1.58,1.58,0,0,0,.41,1.09L45.16,43a1.43,1.43,0,0,0,.51.34,1.62,1.62,0,0,0,.61.12,1.55,1.55,0,0,0,.6-.14,1.53,1.53,0,0,0,.51-.36L55.63,32.6a1.53,1.53,0,0,0,.44-1.09,1.58,1.58,0,0,0-.46-1.08Z"/></svg>